<svg width="57" height="57" viewBox="0 0 57 57" fill="none" xmlns="http://www.w3.org/2000/svg">
<rect y="28.2842" width="40" height="40" rx="5" transform="rotate(-45 0 28.2842)" fill="#161616"/>
<path d="M28.5 34.126C27.876 34.126 27.252 34.042 26.628 33.874C26.004 33.706 25.41 33.448 24.846 33.1L25.152 32.416C25.68 32.728 26.226 32.968 26.79 33.136C27.366 33.292 27.942 33.37 28.518 33.37C29.166 33.37 29.742 33.268 30.246 33.064C30.75 32.848 31.146 32.53 31.434 32.11C31.734 31.678 31.884 31.138 31.884 30.49C31.884 29.986 31.77 29.524 31.542 29.104C31.326 28.684 30.96 28.354 30.444 28.114C29.94 27.862 29.268 27.736 28.428 27.736H26.952V27.034H28.482C29.538 27.034 30.318 26.812 30.822 26.368C31.338 25.924 31.596 25.306 31.596 24.514C31.596 23.626 31.326 22.996 30.786 22.624C30.246 22.24 29.55 22.048 28.698 22.048C28.254 22.048 27.798 22.096 27.33 22.192C26.862 22.276 26.4 22.39 25.944 22.534L26.106 22.354L25.89 24.604H25.332L25.206 22.048C25.83 21.832 26.46 21.664 27.096 21.544C27.732 21.424 28.332 21.364 28.896 21.364C29.604 21.364 30.228 21.466 30.768 21.67C31.32 21.874 31.746 22.198 32.046 22.642C32.358 23.086 32.514 23.674 32.514 24.406C32.514 25.258 32.274 25.936 31.794 26.44C31.326 26.932 30.588 27.25 29.58 27.394L29.562 27.34C30.642 27.412 31.446 27.73 31.974 28.294C32.514 28.846 32.784 29.578 32.784 30.49C32.784 31.09 32.676 31.618 32.46 32.074C32.256 32.53 31.956 32.914 31.56 33.226C31.176 33.526 30.72 33.754 30.192 33.91C29.664 34.054 29.1 34.126 28.5 34.126Z" fill="white"/>
</svg>
