<svg width="57" height="57" viewBox="0 0 57 57" fill="none" xmlns="http://www.w3.org/2000/svg">
<rect y="28.2842" width="40" height="40" rx="5" transform="rotate(-45 0 28.2842)" fill="#161616"/>
<path d="M28.32 34.126C27.204 34.126 26.082 33.844 24.954 33.28L25.242 32.596C25.746 32.848 26.25 33.04 26.754 33.172C27.27 33.304 27.762 33.37 28.23 33.37C28.914 33.37 29.508 33.238 30.012 32.974C30.516 32.71 30.906 32.338 31.182 31.858C31.47 31.378 31.614 30.814 31.614 30.166C31.614 29.494 31.44 28.954 31.092 28.546C30.756 28.138 30.234 27.838 29.526 27.646C28.83 27.454 27.936 27.358 26.844 27.358H25.71L25.962 21.49H32.01V22.228H26.574L26.844 22.03L26.628 26.872L26.376 26.656H27.42C28.584 26.656 29.544 26.788 30.3 27.052C31.056 27.316 31.62 27.712 31.992 28.24C32.364 28.768 32.55 29.422 32.55 30.202C32.55 30.994 32.37 31.684 32.01 32.272C31.65 32.86 31.152 33.316 30.516 33.64C29.892 33.964 29.16 34.126 28.32 34.126Z" fill="white"/>
</svg>
