<svg width="57" height="57" viewBox="0 0 57 57" fill="none" xmlns="http://www.w3.org/2000/svg">
<rect y="28.2842" width="40" height="40" rx="5" transform="rotate(-45 0 28.2842)" fill="#161616"/>
<path d="M24.846 34V33.208C26.298 31.828 27.51 30.622 28.482 29.59C29.466 28.546 30.198 27.616 30.678 26.8C31.17 25.984 31.416 25.21 31.416 24.478C31.416 23.662 31.128 23.062 30.552 22.678C29.988 22.282 29.28 22.084 28.428 22.084C28.056 22.084 27.63 22.126 27.15 22.21C26.682 22.294 26.208 22.414 25.728 22.57L25.872 22.372L25.638 24.64H25.08L24.936 22.048C25.584 21.832 26.214 21.664 26.826 21.544C27.45 21.424 28.026 21.364 28.554 21.364C29.286 21.364 29.934 21.472 30.498 21.688C31.074 21.904 31.524 22.234 31.848 22.678C32.184 23.122 32.352 23.686 32.352 24.37C32.352 25.174 32.112 26.002 31.632 26.854C31.164 27.694 30.45 28.642 29.49 29.698C28.542 30.742 27.342 31.966 25.89 33.37L25.854 33.244H32.712V34H24.846Z" fill="white"/>
</svg>
