<svg width="81" height="80" viewBox="0 0 81 80" fill="none" xmlns="http://www.w3.org/2000/svg">
<g clip-path="url(#clip0_23_452)">
<path d="M40.5 0C18.4087 0 0.5 17.9087 0.5 40C0.5 62.0925 18.4087 80 40.5 80C62.5925 80 80.5 62.0925 80.5 40C80.5 17.9087 62.5925 0 40.5 0ZM40.5 75.0788C21.2013 75.0788 5.5 59.2987 5.5 39.9998C5.5 20.7011 21.2013 4.99984 40.5 4.99984C59.7988 4.99984 75.5 20.7012 75.5 39.9998C75.5 59.2985 59.7988 75.0788 40.5 75.0788ZM56.4637 25.3638L32.9949 48.98L22.4262 38.4113C21.4499 37.435 19.8674 37.435 18.8899 38.4113C17.9137 39.3875 17.9137 40.97 18.8899 41.9463L31.2637 54.3213C32.2399 55.2962 33.8224 55.2962 34.7999 54.3213C34.9124 54.2088 35.0088 54.0862 35.0962 53.9587L60.0013 28.8999C60.9763 27.9237 60.9763 26.3412 60.0013 25.3638C59.0238 24.3875 57.4412 24.3875 56.4637 25.3638Z" fill="#F7F7F7"/>
</g>
<defs>
<clipPath id="clip0_23_452">
<rect width="80" height="80" fill="white" transform="translate(0.5)"/>
</clipPath>
</defs>
</svg>
